<svg width="132" height="55" viewBox="0 0 132 55" fill="none" xmlns="http://www.w3.org/2000/svg">
<path d="M0 54.1245C6.67796 42.6609 14.415 41.6523 29.0947 41.6523C43.7745 41.6523 61.0136 41.2826 84.8718 41.6523C110.554 42.0558 130.382 28.8104 132 -1.34126e-05C125.322 11.4636 116.644 13.5479 101.964 13.5479C87.2841 13.5479 78.4587 13.9177 54.6004 13.5479C28.9182 13.1445 8.88433 26.0537 0 54.1245Z" fill="#DF2224"/>
<path d="M48.544 19.9281V31.0001H47.088V22.7441L43.408 31.0001H42.384L38.688 22.7281V31.0001H37.232V19.9281H38.8L42.896 29.0801L46.992 19.9281H48.544ZM51.7653 20.8081C51.4879 20.8081 51.2533 20.7121 51.0613 20.5201C50.8693 20.3281 50.7733 20.0934 50.7733 19.8161C50.7733 19.5387 50.8693 19.3041 51.0613 19.1121C51.2533 18.9201 51.4879 18.8241 51.7653 18.8241C52.0319 18.8241 52.2559 18.9201 52.4373 19.1121C52.6293 19.3041 52.7253 19.5387 52.7253 19.8161C52.7253 20.0934 52.6293 20.3281 52.4373 20.5201C52.2559 20.7121 52.0319 20.8081 51.7653 20.8081ZM52.4693 22.2321V31.0001H51.0133V22.2321H52.4693ZM59.2228 22.0721C60.2894 22.0721 61.1534 22.3974 61.8148 23.0481C62.4761 23.6881 62.8068 24.6161 62.8068 25.8321V31.0001H61.3668V26.0401C61.3668 25.1654 61.1481 24.4987 60.7108 24.0401C60.2734 23.5707 59.6761 23.3361 58.9188 23.3361C58.1508 23.3361 57.5374 23.5761 57.0788 24.0561C56.6308 24.5361 56.4068 25.2347 56.4068 26.1521V31.0001H54.9508V22.2321H56.4068V23.4801C56.6948 23.0321 57.0841 22.6854 57.5748 22.4401C58.0761 22.1947 58.6254 22.0721 59.2228 22.0721ZM72.9611 22.2321V31.0001H71.5051V29.7041C71.2278 30.1521 70.8385 30.5041 70.3371 30.7601C69.8465 31.0054 69.3025 31.1281 68.7051 31.1281C68.0225 31.1281 67.4091 30.9894 66.8651 30.7121C66.3211 30.4241 65.8891 29.9974 65.5691 29.4321C65.2598 28.8667 65.1051 28.1787 65.1051 27.3681V22.2321H66.5451V27.1761C66.5451 28.0401 66.7638 28.7067 67.2011 29.1761C67.6385 29.6347 68.2358 29.8641 68.9931 29.8641C69.7718 29.8641 70.3851 29.6241 70.8331 29.1441C71.2811 28.6641 71.5051 27.9654 71.5051 27.0481V22.2321H72.9611ZM77.1955 23.4321V28.6001C77.1955 29.0267 77.2862 29.3307 77.4675 29.5121C77.6488 29.6827 77.9635 29.7681 78.4115 29.7681H79.4835V31.0001H78.1715C77.3608 31.0001 76.7528 30.8134 76.3475 30.4401C75.9422 30.0667 75.7395 29.4534 75.7395 28.6001V23.4321H74.6035V22.2321H75.7395V20.0241H77.1955V22.2321H79.4835V23.4321H77.1955ZM89.2476 26.2801C89.2476 26.5574 89.2316 26.8507 89.1996 27.1601H82.1916C82.245 28.0241 82.5383 28.7014 83.0716 29.1921C83.6156 29.6721 84.2716 29.9121 85.0396 29.9121C85.669 29.9121 86.1916 29.7681 86.6076 29.4801C87.0343 29.1814 87.333 28.7867 87.5036 28.2961H89.0716C88.837 29.1387 88.3676 29.8267 87.6636 30.3601C86.9596 30.8827 86.085 31.1441 85.0396 31.1441C84.2076 31.1441 83.461 30.9574 82.7996 30.5841C82.149 30.2107 81.637 29.6827 81.2636 29.0001C80.8903 28.3067 80.7036 27.5067 80.7036 26.6001C80.7036 25.6934 80.885 24.8987 81.2476 24.2161C81.6103 23.5334 82.117 23.0107 82.7676 22.6481C83.429 22.2747 84.1863 22.0881 85.0396 22.0881C85.8716 22.0881 86.6076 22.2694 87.2476 22.6321C87.8876 22.9947 88.3783 23.4961 88.7196 24.1361C89.0716 24.7654 89.2476 25.4801 89.2476 26.2801ZM87.7436 25.9761C87.7436 25.4214 87.621 24.9467 87.3756 24.5521C87.1303 24.1467 86.7943 23.8427 86.3676 23.6401C85.9516 23.4267 85.4876 23.3201 84.9756 23.3201C84.2396 23.3201 83.6103 23.5547 83.0876 24.0241C82.5756 24.4934 82.2823 25.1441 82.2076 25.9761H87.7436ZM94.2735 31.1441C93.6015 31.1441 92.9988 31.0321 92.4655 30.8081C91.9322 30.5734 91.5108 30.2534 91.2015 29.8481C90.8922 29.4321 90.7215 28.9574 90.6895 28.4241H92.1935C92.2362 28.8614 92.4388 29.2187 92.8015 29.4961C93.1748 29.7734 93.6602 29.9121 94.2575 29.9121C94.8122 29.9121 95.2495 29.7894 95.5695 29.5441C95.8895 29.2987 96.0495 28.9894 96.0495 28.6161C96.0495 28.2321 95.8788 27.9494 95.5375 27.7681C95.1962 27.5761 94.6682 27.3894 93.9535 27.2081C93.3028 27.0374 92.7695 26.8667 92.3535 26.6961C91.9482 26.5147 91.5962 26.2534 91.2975 25.9121C91.0095 25.5601 90.8655 25.1014 90.8655 24.5361C90.8655 24.0881 90.9988 23.6774 91.2655 23.3041C91.5322 22.9307 91.9108 22.6374 92.4015 22.4241C92.8922 22.2001 93.4522 22.0881 94.0815 22.0881C95.0522 22.0881 95.8362 22.3334 96.4335 22.8241C97.0308 23.3147 97.3508 23.9867 97.3935 24.8401H95.9375C95.9055 24.3814 95.7188 24.0134 95.3775 23.7361C95.0468 23.4587 94.5988 23.3201 94.0335 23.3201C93.5108 23.3201 93.0948 23.4321 92.7855 23.6561C92.4762 23.8801 92.3215 24.1734 92.3215 24.5361C92.3215 24.8241 92.4122 25.0641 92.5935 25.2561C92.7855 25.4374 93.0202 25.5867 93.2975 25.7041C93.5855 25.8107 93.9802 25.9334 94.4815 26.0721C95.1108 26.2427 95.6228 26.4134 96.0175 26.5841C96.4122 26.7441 96.7482 26.9894 97.0255 27.3201C97.3135 27.6507 97.4628 28.0827 97.4735 28.6161C97.4735 29.0961 97.3402 29.5281 97.0735 29.9121C96.8068 30.2961 96.4282 30.6001 95.9375 30.8241C95.4575 31.0374 94.9028 31.1441 94.2735 31.1441Z" fill="white"/>
</svg>
